<mxfile host="app.diagrams.net" modified="2023-06-19T20:22:46.057Z" agent="Mozilla/5.0 (Windows NT 10.0; Win64; x64) AppleWebKit/537.36 (KHTML, like Gecko) Chrome/114.0.0.0 Safari/537.36" etag="1kgnfZbOLNsoUawPsTr9" version="21.4.0" type="device">
  <diagram id="C5RBs43oDa-KdzZeNtuy" name="Page-1">
    <mxGraphModel dx="53" dy="419" grid="0" gridSize="10" guides="1" tooltips="1" connect="1" arrows="1" fold="1" page="1" pageScale="1" pageWidth="827" pageHeight="1169" math="0" shadow="0">
      <root>
        <mxCell id="WIyWlLk6GJQsqaUBKTNV-0" />
        <mxCell id="WIyWlLk6GJQsqaUBKTNV-1" parent="WIyWlLk6GJQsqaUBKTNV-0" />
        <mxCell id="vR4yBZP3Dg24LVCr8xgP-0" style="edgeStyle=orthogonalEdgeStyle;rounded=0;orthogonalLoop=1;jettySize=auto;html=1;exitX=0.5;exitY=1;exitDx=0;exitDy=0;" parent="WIyWlLk6GJQsqaUBKTNV-1" source="vR4yBZP3Dg24LVCr8xgP-1" target="vR4yBZP3Dg24LVCr8xgP-5" edge="1">
          <mxGeometry relative="1" as="geometry">
            <mxPoint x="900" y="210" as="targetPoint" />
          </mxGeometry>
        </mxCell>
        <mxCell id="vR4yBZP3Dg24LVCr8xgP-1" value="&lt;font face=&quot;Calibri&quot;&gt;get (st_btn_cfg*)&lt;/font&gt;" style="shape=parallelogram;perimeter=parallelogramPerimeter;whiteSpace=wrap;html=1;fixedSize=1;fontSize=11.29;fillColor=#d5e8d4;strokeColor=#82b366;size=0;" parent="WIyWlLk6GJQsqaUBKTNV-1" vertex="1">
          <mxGeometry x="845" y="142" width="110" height="40" as="geometry" />
        </mxCell>
        <mxCell id="vR4yBZP3Dg24LVCr8xgP-2" value="" style="edgeStyle=orthogonalEdgeStyle;rounded=0;orthogonalLoop=1;jettySize=auto;html=1;" parent="WIyWlLk6GJQsqaUBKTNV-1" source="vR4yBZP3Dg24LVCr8xgP-3" target="vR4yBZP3Dg24LVCr8xgP-1" edge="1">
          <mxGeometry relative="1" as="geometry" />
        </mxCell>
        <mxCell id="vR4yBZP3Dg24LVCr8xgP-3" value="&lt;font face=&quot;Calibri&quot; style=&quot;font-size: 11.29px;&quot;&gt;Start&lt;/font&gt;" style="html=1;dashed=0;whiteSpace=wrap;shape=mxgraph.dfd.start;fillColor=#dae8fc;strokeColor=#6c8ebf;" parent="WIyWlLk6GJQsqaUBKTNV-1" vertex="1">
          <mxGeometry x="860" y="83" width="80" height="30" as="geometry" />
        </mxCell>
        <mxCell id="vR4yBZP3Dg24LVCr8xgP-4" value="No" style="edgeStyle=orthogonalEdgeStyle;rounded=0;orthogonalLoop=1;jettySize=auto;html=1;entryX=0.5;entryY=0;entryDx=0;entryDy=0;" parent="WIyWlLk6GJQsqaUBKTNV-1" source="vR4yBZP3Dg24LVCr8xgP-5" target="vR4yBZP3Dg24LVCr8xgP-7" edge="1">
          <mxGeometry relative="1" as="geometry">
            <mxPoint x="900" y="326" as="targetPoint" />
          </mxGeometry>
        </mxCell>
        <mxCell id="vR4yBZP3Dg24LVCr8xgP-16" value="Yes" style="edgeStyle=orthogonalEdgeStyle;rounded=0;orthogonalLoop=1;jettySize=auto;html=1;exitX=0;exitY=0.5;exitDx=0;exitDy=0;entryX=0;entryY=0.5;entryDx=0;entryDy=0;entryPerimeter=0;" parent="WIyWlLk6GJQsqaUBKTNV-1" source="vR4yBZP3Dg24LVCr8xgP-5" target="vR4yBZP3Dg24LVCr8xgP-9" edge="1">
          <mxGeometry relative="1" as="geometry" />
        </mxCell>
        <mxCell id="vR4yBZP3Dg24LVCr8xgP-5" value="&lt;font face=&quot;Calibri&quot;&gt;ptr ==&amp;nbsp;&lt;br style=&quot;font-size: 11.29px;&quot;&gt;NULL?&lt;br&gt;&lt;/font&gt;" style="rhombus;whiteSpace=wrap;html=1;fontSize=11.29;fillColor=#fff2cc;strokeColor=#d6b656;" parent="WIyWlLk6GJQsqaUBKTNV-1" vertex="1">
          <mxGeometry x="860" y="211" width="80" height="80" as="geometry" />
        </mxCell>
        <mxCell id="vR4yBZP3Dg24LVCr8xgP-10" value="No" style="edgeStyle=orthogonalEdgeStyle;rounded=0;orthogonalLoop=1;jettySize=auto;html=1;" parent="WIyWlLk6GJQsqaUBKTNV-1" target="vR4yBZP3Dg24LVCr8xgP-9" edge="1">
          <mxGeometry relative="1" as="geometry">
            <mxPoint x="900" y="522" as="sourcePoint" />
          </mxGeometry>
        </mxCell>
        <mxCell id="vR4yBZP3Dg24LVCr8xgP-18" value="Yes" style="edgeStyle=orthogonalEdgeStyle;rounded=0;orthogonalLoop=1;jettySize=auto;html=1;" parent="WIyWlLk6GJQsqaUBKTNV-1" source="vR4yBZP3Dg24LVCr8xgP-6" target="vR4yBZP3Dg24LVCr8xgP-12" edge="1">
          <mxGeometry relative="1" as="geometry" />
        </mxCell>
        <mxCell id="vR4yBZP3Dg24LVCr8xgP-6" value="pull ==&amp;nbsp;&lt;br style=&quot;border-color: var(--border-color); font-family: Calibri; font-size: 11.29px;&quot;&gt;&lt;span style=&quot;font-family: Calibri;&quot;&gt;external pull&lt;/span&gt;&lt;br style=&quot;border-color: var(--border-color); font-family: Calibri;&quot;&gt;&lt;span style=&quot;font-family: Calibri;&quot;&gt;up/down&lt;/span&gt;&lt;font face=&quot;Calibri&quot;&gt;&lt;br&gt;&lt;/font&gt;" style="rhombus;whiteSpace=wrap;html=1;fontSize=11.29;fillColor=#fff2cc;strokeColor=#d6b656;" parent="WIyWlLk6GJQsqaUBKTNV-1" vertex="1">
          <mxGeometry x="860" y="440" width="80" height="80" as="geometry" />
        </mxCell>
        <mxCell id="vR4yBZP3Dg24LVCr8xgP-8" value="No" style="edgeStyle=orthogonalEdgeStyle;rounded=0;orthogonalLoop=1;jettySize=auto;html=1;" parent="WIyWlLk6GJQsqaUBKTNV-1" source="vR4yBZP3Dg24LVCr8xgP-7" target="vR4yBZP3Dg24LVCr8xgP-6" edge="1">
          <mxGeometry relative="1" as="geometry" />
        </mxCell>
        <mxCell id="vR4yBZP3Dg24LVCr8xgP-17" value="Yes" style="edgeStyle=orthogonalEdgeStyle;rounded=0;orthogonalLoop=1;jettySize=auto;html=1;" parent="WIyWlLk6GJQsqaUBKTNV-1" source="vR4yBZP3Dg24LVCr8xgP-7" target="vR4yBZP3Dg24LVCr8xgP-13" edge="1">
          <mxGeometry relative="1" as="geometry" />
        </mxCell>
        <mxCell id="vR4yBZP3Dg24LVCr8xgP-7" value="&lt;font face=&quot;Calibri&quot;&gt;pull ==&amp;nbsp;&lt;br style=&quot;font-size: 11.29px;&quot;&gt;internal pull&lt;br&gt;up/down&lt;br&gt;&lt;/font&gt;" style="rhombus;whiteSpace=wrap;html=1;fontSize=11.29;fillColor=#fff2cc;strokeColor=#d6b656;" parent="WIyWlLk6GJQsqaUBKTNV-1" vertex="1">
          <mxGeometry x="860" y="330" width="80" height="80" as="geometry" />
        </mxCell>
        <mxCell id="vR4yBZP3Dg24LVCr8xgP-9" value="&lt;font style=&quot;font-size: 11.29px;&quot;&gt;&lt;font face=&quot;Calibri&quot;&gt;return&lt;br&gt;BTN_ERROR&lt;/font&gt;&lt;br&gt;&lt;/font&gt;" style="html=1;dashed=0;whiteSpace=wrap;shape=mxgraph.dfd.start;fillColor=#f8cecc;strokeColor=#b85450;" parent="WIyWlLk6GJQsqaUBKTNV-1" vertex="1">
          <mxGeometry x="858.25" y="545" width="83.5" height="30" as="geometry" />
        </mxCell>
        <mxCell id="vR4yBZP3Dg24LVCr8xgP-22" value="" style="edgeStyle=orthogonalEdgeStyle;rounded=0;orthogonalLoop=1;jettySize=auto;html=1;" parent="WIyWlLk6GJQsqaUBKTNV-1" source="vR4yBZP3Dg24LVCr8xgP-11" target="vR4yBZP3Dg24LVCr8xgP-14" edge="1">
          <mxGeometry relative="1" as="geometry" />
        </mxCell>
        <mxCell id="vR4yBZP3Dg24LVCr8xgP-11" value="&lt;font style=&quot;font-size: 11.29px;&quot; face=&quot;Calibri&quot;&gt;initialize the button pin&lt;/font&gt;" style="rounded=0;whiteSpace=wrap;html=1;fontSize=11.29;fillColor=#d5e8d4;strokeColor=#82b366;" parent="WIyWlLk6GJQsqaUBKTNV-1" vertex="1">
          <mxGeometry x="1121" y="407" width="109.75" height="44" as="geometry" />
        </mxCell>
        <mxCell id="vR4yBZP3Dg24LVCr8xgP-21" value="" style="edgeStyle=orthogonalEdgeStyle;rounded=0;orthogonalLoop=1;jettySize=auto;html=1;entryX=0;entryY=0.5;entryDx=0;entryDy=0;" parent="WIyWlLk6GJQsqaUBKTNV-1" source="vR4yBZP3Dg24LVCr8xgP-12" target="vR4yBZP3Dg24LVCr8xgP-11" edge="1">
          <mxGeometry relative="1" as="geometry" />
        </mxCell>
        <mxCell id="vR4yBZP3Dg24LVCr8xgP-12" value="&lt;font style=&quot;font-size: 11.29px;&quot; face=&quot;Calibri&quot;&gt;configure button pin &lt;br&gt;as floating input&lt;/font&gt;" style="rounded=0;whiteSpace=wrap;html=1;fontSize=11.29;fillColor=#d5e8d4;strokeColor=#82b366;" parent="WIyWlLk6GJQsqaUBKTNV-1" vertex="1">
          <mxGeometry x="970" y="458" width="109.75" height="44" as="geometry" />
        </mxCell>
        <mxCell id="vR4yBZP3Dg24LVCr8xgP-19" style="edgeStyle=orthogonalEdgeStyle;rounded=0;orthogonalLoop=1;jettySize=auto;html=1;exitX=1;exitY=0.5;exitDx=0;exitDy=0;entryX=0;entryY=0.5;entryDx=0;entryDy=0;" parent="WIyWlLk6GJQsqaUBKTNV-1" source="vR4yBZP3Dg24LVCr8xgP-13" target="vR4yBZP3Dg24LVCr8xgP-11" edge="1">
          <mxGeometry relative="1" as="geometry" />
        </mxCell>
        <mxCell id="vR4yBZP3Dg24LVCr8xgP-13" value="&lt;font style=&quot;font-size: 11.29px;&quot; face=&quot;Calibri&quot;&gt;configure btn pin with pull type&lt;/font&gt;" style="rounded=0;whiteSpace=wrap;html=1;fontSize=11.29;fillColor=#d5e8d4;strokeColor=#82b366;" parent="WIyWlLk6GJQsqaUBKTNV-1" vertex="1">
          <mxGeometry x="970" y="348" width="109.75" height="44" as="geometry" />
        </mxCell>
        <mxCell id="vR4yBZP3Dg24LVCr8xgP-56" value="" style="edgeStyle=orthogonalEdgeStyle;rounded=0;orthogonalLoop=1;jettySize=auto;html=1;" parent="WIyWlLk6GJQsqaUBKTNV-1" source="vR4yBZP3Dg24LVCr8xgP-14" target="vR4yBZP3Dg24LVCr8xgP-55" edge="1">
          <mxGeometry relative="1" as="geometry" />
        </mxCell>
        <mxCell id="vR4yBZP3Dg24LVCr8xgP-14" value="&lt;font style=&quot;font-size: 11.29px;&quot; face=&quot;Calibri&quot;&gt;initialize the systick&lt;br&gt;timer (for debouncing)&lt;br&gt;&lt;/font&gt;" style="rounded=0;whiteSpace=wrap;html=1;fontSize=11.29;fillColor=#d5e8d4;strokeColor=#82b366;" parent="WIyWlLk6GJQsqaUBKTNV-1" vertex="1">
          <mxGeometry x="1121" y="479" width="109.75" height="40" as="geometry" />
        </mxCell>
        <mxCell id="vR4yBZP3Dg24LVCr8xgP-23" style="edgeStyle=orthogonalEdgeStyle;rounded=0;orthogonalLoop=1;jettySize=auto;html=1;exitX=0.5;exitY=1;exitDx=0;exitDy=0;" parent="WIyWlLk6GJQsqaUBKTNV-1" source="vR4yBZP3Dg24LVCr8xgP-24" target="vR4yBZP3Dg24LVCr8xgP-29" edge="1">
          <mxGeometry relative="1" as="geometry">
            <mxPoint x="1358" y="210" as="targetPoint" />
          </mxGeometry>
        </mxCell>
        <mxCell id="vR4yBZP3Dg24LVCr8xgP-24" value="&lt;font face=&quot;Calibri&quot;&gt;get (st_btn_cfg*),&lt;br&gt;btn_state*&lt;br&gt;&lt;/font&gt;" style="shape=parallelogram;perimeter=parallelogramPerimeter;whiteSpace=wrap;html=1;fixedSize=1;fontSize=11.29;fillColor=#d5e8d4;strokeColor=#82b366;size=0;" parent="WIyWlLk6GJQsqaUBKTNV-1" vertex="1">
          <mxGeometry x="1303" y="142" width="110" height="40" as="geometry" />
        </mxCell>
        <mxCell id="vR4yBZP3Dg24LVCr8xgP-25" value="" style="edgeStyle=orthogonalEdgeStyle;rounded=0;orthogonalLoop=1;jettySize=auto;html=1;" parent="WIyWlLk6GJQsqaUBKTNV-1" source="vR4yBZP3Dg24LVCr8xgP-26" target="vR4yBZP3Dg24LVCr8xgP-24" edge="1">
          <mxGeometry relative="1" as="geometry" />
        </mxCell>
        <mxCell id="vR4yBZP3Dg24LVCr8xgP-26" value="&lt;font face=&quot;Calibri&quot; style=&quot;font-size: 11.29px;&quot;&gt;Start&lt;/font&gt;" style="html=1;dashed=0;whiteSpace=wrap;shape=mxgraph.dfd.start;fillColor=#dae8fc;strokeColor=#6c8ebf;" parent="WIyWlLk6GJQsqaUBKTNV-1" vertex="1">
          <mxGeometry x="1318" y="83" width="80" height="30" as="geometry" />
        </mxCell>
        <mxCell id="vR4yBZP3Dg24LVCr8xgP-28" value="Yes" style="edgeStyle=orthogonalEdgeStyle;rounded=0;orthogonalLoop=1;jettySize=auto;html=1;exitX=0;exitY=0.5;exitDx=0;exitDy=0;entryX=0;entryY=0.5;entryDx=0;entryDy=0;entryPerimeter=0;" parent="WIyWlLk6GJQsqaUBKTNV-1" source="vR4yBZP3Dg24LVCr8xgP-29" target="vR4yBZP3Dg24LVCr8xgP-36" edge="1">
          <mxGeometry relative="1" as="geometry" />
        </mxCell>
        <mxCell id="vR4yBZP3Dg24LVCr8xgP-58" value="No" style="edgeStyle=orthogonalEdgeStyle;rounded=0;orthogonalLoop=1;jettySize=auto;html=1;" parent="WIyWlLk6GJQsqaUBKTNV-1" source="vR4yBZP3Dg24LVCr8xgP-29" target="vR4yBZP3Dg24LVCr8xgP-57" edge="1">
          <mxGeometry relative="1" as="geometry" />
        </mxCell>
        <mxCell id="vR4yBZP3Dg24LVCr8xgP-29" value="&lt;font face=&quot;Calibri&quot;&gt;ptr(s) ==&amp;nbsp;&lt;br style=&quot;font-size: 11.29px;&quot;&gt;NULL?&lt;br&gt;&lt;/font&gt;" style="rhombus;whiteSpace=wrap;html=1;fontSize=11.29;fillColor=#fff2cc;strokeColor=#d6b656;" parent="WIyWlLk6GJQsqaUBKTNV-1" vertex="1">
          <mxGeometry x="1318" y="211" width="80" height="80" as="geometry" />
        </mxCell>
        <mxCell id="vR4yBZP3Dg24LVCr8xgP-30" value="No" style="edgeStyle=orthogonalEdgeStyle;rounded=0;orthogonalLoop=1;jettySize=auto;html=1;" parent="WIyWlLk6GJQsqaUBKTNV-1" target="vR4yBZP3Dg24LVCr8xgP-36" edge="1">
          <mxGeometry relative="1" as="geometry">
            <mxPoint x="1358" y="585" as="sourcePoint" />
          </mxGeometry>
        </mxCell>
        <mxCell id="vR4yBZP3Dg24LVCr8xgP-31" value="Yes" style="edgeStyle=orthogonalEdgeStyle;rounded=0;orthogonalLoop=1;jettySize=auto;html=1;" parent="WIyWlLk6GJQsqaUBKTNV-1" source="vR4yBZP3Dg24LVCr8xgP-32" target="vR4yBZP3Dg24LVCr8xgP-40" edge="1">
          <mxGeometry relative="1" as="geometry" />
        </mxCell>
        <mxCell id="vR4yBZP3Dg24LVCr8xgP-32" value="&lt;font data-font-src=&quot;https://fonts.googleapis.com/css?family=calibri&quot; face=&quot;calibri&quot;&gt;&lt;font data-font-src=&quot;https://fonts.googleapis.com/css?family=calibri&quot;&gt;pull ==&amp;nbsp;&lt;/font&gt;&amp;nbsp;&lt;br style=&quot;border-color: var(--border-color); font-size: 11.29px;&quot;&gt;(in/ex)ternal&lt;br style=&quot;border-color: var(--border-color);&quot;&gt;pull up&lt;/font&gt;&lt;font face=&quot;Calibri&quot;&gt;&lt;br&gt;&lt;/font&gt;" style="rhombus;whiteSpace=wrap;html=1;fontSize=11.29;fillColor=#fff2cc;strokeColor=#d6b656;" parent="WIyWlLk6GJQsqaUBKTNV-1" vertex="1">
          <mxGeometry x="1318" y="503" width="80" height="80" as="geometry" />
        </mxCell>
        <mxCell id="vR4yBZP3Dg24LVCr8xgP-33" value="No" style="edgeStyle=orthogonalEdgeStyle;rounded=0;orthogonalLoop=1;jettySize=auto;html=1;" parent="WIyWlLk6GJQsqaUBKTNV-1" source="vR4yBZP3Dg24LVCr8xgP-35" target="vR4yBZP3Dg24LVCr8xgP-32" edge="1">
          <mxGeometry relative="1" as="geometry" />
        </mxCell>
        <mxCell id="vR4yBZP3Dg24LVCr8xgP-34" value="Yes" style="edgeStyle=orthogonalEdgeStyle;rounded=0;orthogonalLoop=1;jettySize=auto;html=1;" parent="WIyWlLk6GJQsqaUBKTNV-1" source="vR4yBZP3Dg24LVCr8xgP-35" target="vR4yBZP3Dg24LVCr8xgP-42" edge="1">
          <mxGeometry relative="1" as="geometry" />
        </mxCell>
        <mxCell id="vR4yBZP3Dg24LVCr8xgP-35" value="&lt;font face=&quot;Calibri&quot;&gt;pull ==&amp;nbsp;&lt;br style=&quot;font-size: 11.29px;&quot;&gt;(in/ex)ternal&lt;br&gt;pull &lt;br&gt;down&lt;br&gt;&lt;/font&gt;" style="rhombus;whiteSpace=wrap;html=1;fontSize=11.29;fillColor=#fff2cc;strokeColor=#d6b656;" parent="WIyWlLk6GJQsqaUBKTNV-1" vertex="1">
          <mxGeometry x="1318" y="393" width="80" height="80" as="geometry" />
        </mxCell>
        <mxCell id="vR4yBZP3Dg24LVCr8xgP-36" value="&lt;font style=&quot;font-size: 11.29px;&quot;&gt;&lt;font face=&quot;Calibri&quot;&gt;return&lt;br&gt;BTN_ERROR&lt;/font&gt;&lt;br&gt;&lt;/font&gt;" style="html=1;dashed=0;whiteSpace=wrap;shape=mxgraph.dfd.start;fillColor=#f8cecc;strokeColor=#b85450;" parent="WIyWlLk6GJQsqaUBKTNV-1" vertex="1">
          <mxGeometry x="1316.25" y="608" width="83.5" height="30" as="geometry" />
        </mxCell>
        <mxCell id="vR4yBZP3Dg24LVCr8xgP-48" style="edgeStyle=orthogonalEdgeStyle;rounded=0;orthogonalLoop=1;jettySize=auto;html=1;exitX=1;exitY=0.5;exitDx=0;exitDy=0;entryX=0.5;entryY=1;entryDx=0;entryDy=0;" parent="WIyWlLk6GJQsqaUBKTNV-1" source="vR4yBZP3Dg24LVCr8xgP-40" target="vR4yBZP3Dg24LVCr8xgP-46" edge="1">
          <mxGeometry relative="1" as="geometry" />
        </mxCell>
        <mxCell id="vR4yBZP3Dg24LVCr8xgP-40" value="&lt;font data-font-src=&quot;https://fonts.googleapis.com/css?family=calibri&quot; face=&quot;calibri&quot;&gt;*btn_state =&lt;br style=&quot;border-color: var(--border-color); font-size: 11.29px;&quot;&gt;&lt;span style=&quot;font-size: 11.29px;&quot;&gt;!pin_val&amp;nbsp;&lt;/span&gt;&lt;/font&gt;" style="rounded=0;whiteSpace=wrap;html=1;fontSize=11.29;fillColor=#d5e8d4;strokeColor=#82b366;" parent="WIyWlLk6GJQsqaUBKTNV-1" vertex="1">
          <mxGeometry x="1430" y="521" width="109.75" height="44" as="geometry" />
        </mxCell>
        <mxCell id="vR4yBZP3Dg24LVCr8xgP-47" style="edgeStyle=orthogonalEdgeStyle;rounded=0;orthogonalLoop=1;jettySize=auto;html=1;exitX=1;exitY=0.5;exitDx=0;exitDy=0;entryX=0.5;entryY=0;entryDx=0;entryDy=0;" parent="WIyWlLk6GJQsqaUBKTNV-1" source="vR4yBZP3Dg24LVCr8xgP-42" target="vR4yBZP3Dg24LVCr8xgP-46" edge="1">
          <mxGeometry relative="1" as="geometry" />
        </mxCell>
        <mxCell id="vR4yBZP3Dg24LVCr8xgP-42" value="&lt;font style=&quot;font-size: 11.29px;&quot; face=&quot;Calibri&quot;&gt;*btn_state =&lt;br&gt;pin_val&amp;nbsp;&lt;/font&gt;" style="rounded=0;whiteSpace=wrap;html=1;fontSize=11.29;fillColor=#d5e8d4;strokeColor=#82b366;" parent="WIyWlLk6GJQsqaUBKTNV-1" vertex="1">
          <mxGeometry x="1437" y="411" width="109.75" height="44" as="geometry" />
        </mxCell>
        <mxCell id="vR4yBZP3Dg24LVCr8xgP-63" value="" style="edgeStyle=orthogonalEdgeStyle;rounded=0;orthogonalLoop=1;jettySize=auto;html=1;" parent="WIyWlLk6GJQsqaUBKTNV-1" source="vR4yBZP3Dg24LVCr8xgP-44" target="vR4yBZP3Dg24LVCr8xgP-53" edge="1">
          <mxGeometry relative="1" as="geometry" />
        </mxCell>
        <mxCell id="vR4yBZP3Dg24LVCr8xgP-44" value="&lt;font style=&quot;font-size: 11.29px;&quot; face=&quot;Calibri&quot;&gt;start delay for debouncing&lt;br&gt;&lt;/font&gt;" style="rounded=0;whiteSpace=wrap;html=1;fontSize=11.29;fillColor=#d5e8d4;strokeColor=#82b366;" parent="WIyWlLk6GJQsqaUBKTNV-1" vertex="1">
          <mxGeometry x="1430" y="601" width="109.75" height="44" as="geometry" />
        </mxCell>
        <mxCell id="vR4yBZP3Dg24LVCr8xgP-51" value="Yes" style="edgeStyle=orthogonalEdgeStyle;rounded=0;orthogonalLoop=1;jettySize=auto;html=1;exitX=0;exitY=0.5;exitDx=0;exitDy=0;entryX=1;entryY=0.5;entryDx=0;entryDy=0;" parent="WIyWlLk6GJQsqaUBKTNV-1" source="vR4yBZP3Dg24LVCr8xgP-45" target="vR4yBZP3Dg24LVCr8xgP-44" edge="1">
          <mxGeometry relative="1" as="geometry" />
        </mxCell>
        <mxCell id="vR4yBZP3Dg24LVCr8xgP-62" style="edgeStyle=orthogonalEdgeStyle;rounded=0;orthogonalLoop=1;jettySize=auto;html=1;exitX=0.5;exitY=1;exitDx=0;exitDy=0;entryX=1;entryY=0.5;entryDx=0;entryDy=0;entryPerimeter=0;" parent="WIyWlLk6GJQsqaUBKTNV-1" source="vR4yBZP3Dg24LVCr8xgP-45" target="vR4yBZP3Dg24LVCr8xgP-53" edge="1">
          <mxGeometry relative="1" as="geometry" />
        </mxCell>
        <mxCell id="vR4yBZP3Dg24LVCr8xgP-45" value="&lt;font data-font-src=&quot;https://fonts.googleapis.com/css?family=calibri&quot; face=&quot;calibri&quot; style=&quot;font-size: 11.29px;&quot;&gt;btn_state ==&amp;nbsp;&lt;/font&gt;&lt;font style=&quot;font-size: 11.29px;&quot;&gt;&lt;font data-font-src=&quot;https://fonts.googleapis.com/css?family=calibri&quot; face=&quot;calibri&quot; style=&quot;font-size: 11.29px;&quot;&gt;button&amp;nbsp;&lt;br&gt;pressed?&lt;/font&gt;&lt;br&gt;&lt;/font&gt;" style="rhombus;whiteSpace=wrap;html=1;fontSize=11.29;fillColor=#fff2cc;strokeColor=#d6b656;" parent="WIyWlLk6GJQsqaUBKTNV-1" vertex="1">
          <mxGeometry x="1570" y="583" width="80" height="80" as="geometry" />
        </mxCell>
        <mxCell id="vR4yBZP3Dg24LVCr8xgP-49" style="edgeStyle=orthogonalEdgeStyle;rounded=0;orthogonalLoop=1;jettySize=auto;html=1;exitX=1;exitY=0.5;exitDx=0;exitDy=0;" parent="WIyWlLk6GJQsqaUBKTNV-1" source="vR4yBZP3Dg24LVCr8xgP-46" target="vR4yBZP3Dg24LVCr8xgP-45" edge="1">
          <mxGeometry relative="1" as="geometry" />
        </mxCell>
        <mxCell id="vR4yBZP3Dg24LVCr8xgP-46" value="" style="rhombus;whiteSpace=wrap;html=1;" parent="WIyWlLk6GJQsqaUBKTNV-1" vertex="1">
          <mxGeometry x="1570" y="481" width="20" height="22" as="geometry" />
        </mxCell>
        <mxCell id="vR4yBZP3Dg24LVCr8xgP-53" value="&lt;font style=&quot;font-size: 11.29px;&quot;&gt;&lt;font face=&quot;Calibri&quot;&gt;return&lt;br&gt;BTN_OK&lt;/font&gt;&lt;br&gt;&lt;/font&gt;" style="html=1;dashed=0;whiteSpace=wrap;shape=mxgraph.dfd.start;fillColor=#d5e8d4;strokeColor=#82b366;" parent="WIyWlLk6GJQsqaUBKTNV-1" vertex="1">
          <mxGeometry x="1440" y="667" width="89.75" height="30" as="geometry" />
        </mxCell>
        <mxCell id="vR4yBZP3Dg24LVCr8xgP-55" value="&lt;font style=&quot;font-size: 11.29px;&quot;&gt;&lt;font face=&quot;Calibri&quot;&gt;return&lt;br&gt;BTN_OK&lt;/font&gt;&lt;br&gt;&lt;/font&gt;" style="html=1;dashed=0;whiteSpace=wrap;shape=mxgraph.dfd.start;fillColor=#d5e8d4;strokeColor=#82b366;" parent="WIyWlLk6GJQsqaUBKTNV-1" vertex="1">
          <mxGeometry x="1131" y="545" width="89.75" height="30" as="geometry" />
        </mxCell>
        <mxCell id="vR4yBZP3Dg24LVCr8xgP-59" value="" style="edgeStyle=orthogonalEdgeStyle;rounded=0;orthogonalLoop=1;jettySize=auto;html=1;" parent="WIyWlLk6GJQsqaUBKTNV-1" source="vR4yBZP3Dg24LVCr8xgP-57" target="vR4yBZP3Dg24LVCr8xgP-35" edge="1">
          <mxGeometry relative="1" as="geometry" />
        </mxCell>
        <mxCell id="vR4yBZP3Dg24LVCr8xgP-57" value="&lt;font face=&quot;Calibri&quot;&gt;&lt;span style=&quot;font-size: 11.29px;&quot;&gt;pin_val =&amp;nbsp;&lt;br&gt;gpio_read_pin&lt;br&gt;&lt;/span&gt;&lt;/font&gt;" style="rounded=0;whiteSpace=wrap;html=1;fontSize=11.29;fillColor=#d5e8d4;strokeColor=#82b366;" parent="WIyWlLk6GJQsqaUBKTNV-1" vertex="1">
          <mxGeometry x="1309.63" y="323" width="96.75" height="44" as="geometry" />
        </mxCell>
        <mxCell id="sYh5e73azMwAmJW5M8GT-0" value="&lt;font style=&quot;font-size: 14px;&quot;&gt;&lt;b&gt;btn_init&lt;/b&gt;&lt;/font&gt;" style="rounded=0;whiteSpace=wrap;html=1;strokeColor=#FFFFFF;" vertex="1" parent="WIyWlLk6GJQsqaUBKTNV-1">
          <mxGeometry x="840" y="29" width="120" height="51" as="geometry" />
        </mxCell>
        <mxCell id="sYh5e73azMwAmJW5M8GT-1" value="&lt;font style=&quot;font-size: 14px;&quot;&gt;&lt;b&gt;btn_read&lt;/b&gt;&lt;/font&gt;" style="rounded=0;whiteSpace=wrap;html=1;strokeColor=#FFFFFF;" vertex="1" parent="WIyWlLk6GJQsqaUBKTNV-1">
          <mxGeometry x="1298.01" y="26" width="120" height="51" as="geometry" />
        </mxCell>
      </root>
    </mxGraphModel>
  </diagram>
</mxfile>
